<svg focusable="false" role="img" viewBox="0 0 264 264" xmlns="http://www.w3.org/2000/svg"><path d="M66.0866 68.5204C28.8885 49.6439 -2.11655 83.4724 0.352873 120.519V197.32C0.339676 199.296 0.889398 201.236 1.93766 202.911C2.98593 204.586 4.4893 205.927 6.27164 206.778L25.8703 216.118C26.4904 216.409 27.162 216.576 27.8464 216.607C28.5309 216.639 29.2149 216.535 29.8593 216.302C30.5036 216.069 31.0958 215.71 31.6018 215.248C32.1078 214.785 32.5177 214.227 32.8082 213.606C33.121 212.902 33.2813 212.14 33.2785 211.369V136.217C33.2785 113.18 48.683 101.329 66.165 110.237C86.3124 120.519 98.4636 144.733 99.0515 167.651V247.592C99.0418 248.581 99.313 249.552 99.8334 250.393C100.354 251.234 101.102 251.909 101.991 252.34L124.53 263.093C125.147 263.384 125.816 263.55 126.497 263.581C127.179 263.612 127.86 263.508 128.501 263.274C129.142 263.041 129.731 262.683 130.233 262.22C130.736 261.758 131.142 261.201 131.428 260.581C131.754 259.88 131.927 259.118 131.938 258.344V183.349C131.546 138.964 106.303 88.8881 66.165 68.5204" fill="#4BAFFA"/><path d="M171.567 164.276L194.34 153.406C195.268 152.945 196.042 152.226 196.571 151.334C197.099 150.443 197.359 149.418 197.319 148.382C195.673 104.9 170.704 56.9041 131.664 37.0858C121.747 31.6422 110.091 30.3173 99.2085 33.3968L98.3462 33.7107L77.846 43.5218C77.3651 43.7587 76.9967 44.1757 76.8206 44.6825C76.6446 45.1893 76.675 45.7451 76.9052 46.2297C77.0641 46.5733 77.3188 46.8636 77.6387 47.0656C77.9587 47.2675 78.3301 47.3724 78.7083 47.3677C85.691 47.6636 92.52 49.5137 98.6989 52.7834C110.918 59.1199 121.772 67.8006 130.645 78.3314C150.058 101.361 161.754 129.914 164.08 159.959C164.18 161.327 164.819 162.6 165.855 163.497C166.891 164.395 168.24 164.844 169.607 164.747C170.246 164.716 170.873 164.556 171.449 164.276" fill="#50CDAA"/><path d="M144.481 16.051C151.461 16.3347 158.29 18.1713 164.472 21.4274C176.674 27.7894 187.524 36.4665 196.418 46.9754C215.849 69.9855 227.572 98.5246 229.931 128.564C229.982 129.408 230.239 130.226 230.681 130.947C231.123 131.667 231.735 132.267 232.464 132.694C233.192 133.121 234.015 133.361 234.859 133.394C235.702 133.426 236.541 133.25 237.3 132.881L260.035 122.01C260.975 121.566 261.761 120.85 262.292 119.955C262.823 119.06 263.074 118.026 263.014 116.987C261.407 73.5045 236.438 25.5088 197.358 5.69049C187.442 0.246918 175.786 -1.07792 164.903 2.00152L164.08 2.31548L143.541 12.1265C143.098 12.3099 142.735 12.6432 142.513 13.0681C142.292 13.493 142.227 13.9823 142.33 14.4504C142.433 14.9184 142.697 15.3353 143.076 15.628C143.455 15.9206 143.925 16.0703 144.403 16.051" fill="#FA8746"/><path d="M255.762 165.768L167.49 207.955C166.602 208.382 165.852 209.05 165.326 209.882C164.799 210.715 164.517 211.679 164.511 212.665V242.804C164.511 244.188 165.06 245.516 166.038 246.495C167.015 247.474 168.341 248.024 169.724 248.024C170.48 248.057 171.232 247.909 171.919 247.592L251.293 209.682C254.832 207.955 257.812 205.264 259.892 201.918C261.972 198.573 263.067 194.707 263.053 190.766V170.555C263.086 169.2 262.595 167.883 261.682 166.882C260.769 165.88 259.505 165.27 258.153 165.179C257.391 165.17 256.638 165.345 255.958 165.689" fill="#FADD00"/></svg>
